<mxfile host="Electron" modified="2023-05-13T10:33:36.866Z" agent="Mozilla/5.0 (Macintosh; Intel Mac OS X 10_15_7) AppleWebKit/537.36 (KHTML, like Gecko) draw.io/21.2.8 Chrome/112.0.5615.165 Electron/24.2.0 Safari/537.36" etag="CWh8HPC_Snm9tlVF7XCg" version="21.2.8" type="device">
  <diagram id="p5rWUX0um-Mp6gDHCgZc" name="ページ1">
    <mxGraphModel dx="857" dy="1728" grid="1" gridSize="10" guides="1" tooltips="1" connect="1" arrows="1" fold="1" page="1" pageScale="1" pageWidth="827" pageHeight="1169" math="0" shadow="0">
      <root>
        <mxCell id="0" />
        <mxCell id="1" parent="0" />
        <mxCell id="8nzwUdZZcDRXFDm2f0rm-3" value="Cron&lt;br&gt;(EventBridge)" style="sketch=0;points=[[0,0,0],[0.25,0,0],[0.5,0,0],[0.75,0,0],[1,0,0],[0,1,0],[0.25,1,0],[0.5,1,0],[0.75,1,0],[1,1,0],[0,0.25,0],[0,0.5,0],[0,0.75,0],[1,0.25,0],[1,0.5,0],[1,0.75,0]];outlineConnect=0;fontColor=#232F3E;gradientColor=#FF4F8B;gradientDirection=north;fillColor=#BC1356;strokeColor=#ffffff;dashed=0;verticalLabelPosition=bottom;verticalAlign=top;align=center;html=1;fontSize=12;fontStyle=0;aspect=fixed;shape=mxgraph.aws4.resourceIcon;resIcon=mxgraph.aws4.eventbridge;" parent="1" vertex="1">
          <mxGeometry x="40" y="120" width="78" height="78" as="geometry" />
        </mxCell>
        <mxCell id="8nzwUdZZcDRXFDm2f0rm-5" value="" style="endArrow=classic;html=1;rounded=0;entryX=0;entryY=0.5;entryDx=0;entryDy=0;entryPerimeter=0;" parent="1" edge="1">
          <mxGeometry width="50" height="50" relative="1" as="geometry">
            <mxPoint x="120" y="160" as="sourcePoint" />
            <mxPoint x="200" y="159" as="targetPoint" />
          </mxGeometry>
        </mxCell>
        <mxCell id="8nzwUdZZcDRXFDm2f0rm-6" value="AWS RSS" style="dashed=0;outlineConnect=0;html=1;align=center;labelPosition=center;verticalLabelPosition=bottom;verticalAlign=top;shape=mxgraph.webicons.rss;fillColor=#FDE532;gradientColor=#F4600D" parent="1" vertex="1">
          <mxGeometry x="360" y="120" width="90" height="87" as="geometry" />
        </mxCell>
        <mxCell id="8nzwUdZZcDRXFDm2f0rm-7" value="" style="endArrow=classic;html=1;rounded=0;entryX=0;entryY=0.5;entryDx=0;entryDy=0;entryPerimeter=0;" parent="1" edge="1">
          <mxGeometry width="50" height="50" relative="1" as="geometry">
            <mxPoint x="280" y="159.5" as="sourcePoint" />
            <mxPoint x="360" y="158.5" as="targetPoint" />
          </mxGeometry>
        </mxCell>
        <mxCell id="8nzwUdZZcDRXFDm2f0rm-10" value="" style="endArrow=classic;html=1;rounded=0;entryX=0.5;entryY=0;entryDx=0;entryDy=0;" parent="1" target="8nzwUdZZcDRXFDm2f0rm-11" edge="1">
          <mxGeometry width="50" height="50" relative="1" as="geometry">
            <mxPoint x="240" y="240" as="sourcePoint" />
            <mxPoint x="263.25" y="230" as="targetPoint" />
          </mxGeometry>
        </mxCell>
        <mxCell id="8nzwUdZZcDRXFDm2f0rm-11" value="" style="whiteSpace=wrap;html=1;aspect=fixed;" parent="1" vertex="1">
          <mxGeometry x="200" y="290" width="80" height="80" as="geometry" />
        </mxCell>
        <mxCell id="8nzwUdZZcDRXFDm2f0rm-12" value="LINE" style="text;html=1;align=center;verticalAlign=middle;resizable=0;points=[];autosize=1;strokeColor=none;fillColor=none;" parent="1" vertex="1">
          <mxGeometry x="215" y="315" width="50" height="30" as="geometry" />
        </mxCell>
        <mxCell id="Kr2EcAl5vN8l3PGVMoFb-3" style="edgeStyle=orthogonalEdgeStyle;rounded=0;orthogonalLoop=1;jettySize=auto;html=1;" edge="1" parent="1" source="Kr2EcAl5vN8l3PGVMoFb-1">
          <mxGeometry relative="1" as="geometry">
            <mxPoint x="240" y="80" as="targetPoint" />
            <Array as="points">
              <mxPoint x="240" y="110" />
              <mxPoint x="240" y="110" />
            </Array>
          </mxGeometry>
        </mxCell>
        <mxCell id="Kr2EcAl5vN8l3PGVMoFb-1" value="check diff/send message&lt;br&gt;(Lambda)" style="sketch=0;points=[[0,0,0],[0.25,0,0],[0.5,0,0],[0.75,0,0],[1,0,0],[0,1,0],[0.25,1,0],[0.5,1,0],[0.75,1,0],[1,1,0],[0,0.25,0],[0,0.5,0],[0,0.75,0],[1,0.25,0],[1,0.5,0],[1,0.75,0]];outlineConnect=0;fontColor=#232F3E;gradientColor=#F78E04;gradientDirection=north;fillColor=#D05C17;strokeColor=#ffffff;dashed=0;verticalLabelPosition=bottom;verticalAlign=top;align=center;html=1;fontSize=12;fontStyle=0;aspect=fixed;shape=mxgraph.aws4.resourceIcon;resIcon=mxgraph.aws4.lambda;" vertex="1" parent="1">
          <mxGeometry x="200" y="120" width="78" height="78" as="geometry" />
        </mxCell>
        <mxCell id="Kr2EcAl5vN8l3PGVMoFb-2" value="latest data&lt;br&gt;(DynamoDB)" style="sketch=0;points=[[0,0,0],[0.25,0,0],[0.5,0,0],[0.75,0,0],[1,0,0],[0,1,0],[0.25,1,0],[0.5,1,0],[0.75,1,0],[1,1,0],[0,0.25,0],[0,0.5,0],[0,0.75,0],[1,0.25,0],[1,0.5,0],[1,0.75,0]];outlineConnect=0;fontColor=#232F3E;gradientColor=#4D72F3;gradientDirection=north;fillColor=#3334B9;strokeColor=#ffffff;dashed=0;verticalLabelPosition=bottom;verticalAlign=top;align=center;html=1;fontSize=12;fontStyle=0;aspect=fixed;shape=mxgraph.aws4.resourceIcon;resIcon=mxgraph.aws4.dynamodb;" vertex="1" parent="1">
          <mxGeometry x="201" y="-40" width="78" height="78" as="geometry" />
        </mxCell>
      </root>
    </mxGraphModel>
  </diagram>
</mxfile>
